<svg width="195" height="219" viewBox="0 0 195 219" fill="none" xmlns="http://www.w3.org/2000/svg">
<path id="Vector" d="M11.0684 215.173C3.74609 211.034 0.0849609 204.826 0.0849609 196.549C0.0849609 188.112 3.50732 181.904 10.3521 177.925L129.976 109.159L10.3521 40.1548C3.50732 36.1753 0.0849609 30.1265 0.0849609 22.0083C0.0849609 18.188 1.11963 14.5269 3.18896 11.0249C7.16846 3.70264 13.4561 0.0415039 22.0518 0.0415039C25.7129 0.0415039 29.0557 0.996582 32.0801 2.90674L184.176 90.5352C191.021 94.5146 194.443 100.404 194.443 108.204C194.443 117.277 191.021 123.724 184.176 127.544L32.0801 215.173C29.0557 217.083 25.6333 218.038 21.813 218.038C18.1519 218.038 14.5703 217.083 11.0684 215.173Z" fill="#666CBE"/>
</svg>
